<svg xmlns="http://www.w3.org/2000/svg" version="1.1" xmlns:xlink="http://www.w3.org/1999/xlink" xmlns:svgjs="http://svgjs.dev/svgjs" viewBox="0 0 7.366978174734479 5.690760533298647"><g transform="matrix(1,0,0,1,2.2079476658669237,2.2055722561467603)"><g><path d=" M -1.1231367356955537 1.476535887694947 L -0.954070561026503 1.4587418273720738 L -0.901107063830186 1.9619623237399542 L -1.6072069698009273 2.036278693323719 L -1.6592284285095626 1.5420087591442002 L -1.490162253840512 1.524214698821327 L -1.4585516290316427 1.8245557855863463 L -1.3591009380498482 1.814088691278774 L -1.3861060413633854 1.557505908545744 L -1.2289739496121501 1.5409678995397793 L -1.201968846298613 1.7975506822728093 L -1.0905840723990032 1.785827536648328 L -1.1231367356955537 1.476535887694947 M -0.9453833319234863 1.341698305027222 L -1.6480292075015552 1.2397729718998345 L -1.6200356300933292 1.0467927666354353 L -1.0856289078226853 1.1243134425351384 L -1.0394036158973068 0.80564869332931 L -0.8711644625898818 0.8300533505569943 L -0.9453833319234863 1.341698305027222 M -0.9753769098599077 -0.07346136818636073 Q -0.9753769098599077 -0.07346136818636073 -0.9923062549439688 -0.0633422143173471 Q -1.00923560002803 -0.05322306044833347 -1.0336353262731774 -0.03465148649344585 Q -1.058035052518325 -0.016079912538558228 -1.0826397632677396 0.008078071833852563 Q -1.107244474017154 0.03223605620626335 -1.122595205347861 0.06031371721305767 Q -1.1345879641999757 0.08224938987461572 -1.1352439146136304 0.10012590321068948 Q -1.1358998650272851 0.11800241654676336 -1.1192287538045012 0.12711691327437058 Q -1.1034350694881794 0.13575169964789313 -1.0861080078517404 0.12698968303942637 Q -1.0687809462153015 0.11822766643095972 -1.0467326486116453 0.0966609658770825 Q -1.024684351007989 0.07509426532320529 -0.9936096767065108 0.045355996761349715 Q -0.9444002552076816 -0.002959971983471754 -0.898561058643601 -0.032603994287463856 Q -0.8527218620795205 -0.06224801659145607 -0.8047136031615971 -0.06563284681905068 Q -0.7567053442436739 -0.0690176770466453 -0.6979177415106983 -0.03687708332297801 Q -0.6417624194971098 -0.006175620661564407 -0.6146276872099443 0.03487259858974856 Q -0.5874929549227788 0.07592081784106153 -0.5833885591640573 0.12261293639929133 Q -0.5792841634053358 0.16930505495752113 -0.5922198509770793 0.21693821553968534 Q -0.6051555385488228 0.2645713761218495 -0.6291410562530522 0.3084427214449656 Q -0.6536062843113661 0.35319149367454405 -0.689443191480915 0.39685172826531473 Q -0.725280098650464 0.4405119628560854 -0.7664574348324155 0.4772635204415613 Q -0.807634771014367 0.5140150780270372 -0.8501979889015623 0.5397516761528023 L -0.959942320163514 0.3840173454615029 Q -0.959942320163514 0.3840173454615029 -0.9398189902042744 0.37222533158127147 Q -0.9196956602450348 0.36043331770104015 -0.8907038149633085 0.3386738850990523 Q -0.8617119696815824 0.3169144524970645 -0.8317545774636087 0.2871351870343555 Q -0.8017971852456351 0.25735592157164655 -0.782129060728167 0.22138141840669134 Q -0.7667783293974603 0.19330375739989702 -0.7682400786763326 0.178258383059399 Q -0.769701827955205 0.163213008718901 -0.7819858046456776 0.1564970637617168 Q -0.8004117696813863 0.14642314632594045 -0.8210558068955639 0.16020986919613878 Q -0.8416998441097415 0.1739965920663371 -0.8679425441975988 0.20010828852786133 Q -0.894185244285456 0.22621998498938567 -0.9270967662015657 0.25723339701008124 Q -0.9752647731905189 0.30155994777496886 -1.017705000375154 0.3239446996502202 Q -1.060145227559789 0.34632945152547145 -1.1012858063732707 0.34549113482416816 Q -1.1424263851867527 0.34465281812286486 -1.1880525843227934 0.3197078797104663 Q -1.257369309933317 0.28181076173778397 -1.2861236528746902 0.22392131743219496 Q -1.3148779958160635 0.1660318731266059 -1.3099847593216598 0.09975551054830933 Q -1.3050915228272562 0.033479147970012724 -1.271511798041335 -0.027940735482349877 Q -1.2465668596289365 -0.07356693461839059 -1.212333071125055 -0.11012576015575593 Q -1.1780992826211736 -0.14668458569312115 -1.1419179082562567 -0.1753404428442472 Q -1.10573653389134 -0.20399629999537328 -1.076346972057236 -0.2243985953368144 L -0.9753769098599077 -0.07346136818636073 M -0.20992020776303633 -0.5036554480041758 L -0.08691840833155656 -0.38630742996970696 L -0.436201332598858 -0.020196191661890746 L -0.9499147302244499 -0.5102967375705548 L -0.6068443480883849 -0.8698961159084692 L -0.4838425486569053 -0.7525480978740002 L -0.6923078512828441 -0.5340390188839598 L -0.6199538516172678 -0.4650107729813311 L -0.44186097718848566 -0.651684092118518 L -0.32754165771687505 -0.5426194635923646 L -0.5056345321456572 -0.35594614445517764 L -0.4245980525202117 -0.2786345090442334 L -0.20992020776303633 -0.5036554480041758 M 0.4324044427126394 -0.924725737475347 Q 0.46488179527144674 -0.8695784658223366 0.45545231449525053 -0.817604098175473 Q 0.44602283371905416 -0.7656297305286093 0.40568733282440944 -0.7198252835002026 Q 0.3653518319297647 -0.674020836471796 0.3050345035592846 -0.6384987321106004 L 0.004309537826462144 -0.46139566893835376 L -0.35598609212280746 -1.073185713838938 L -0.0009755308565529419 -1.2822586709362607 Q 0.04210827512236148 -1.307631602622829 0.08700710728085015 -1.3033194255851992 Q 0.13190593943933882 -1.2990072485475694 0.17002188638783283 -1.272712294883043 Q 0.20813783333632674 -1.2464173412185167 0.23097347185423822 -1.2076419158374936 Q 0.2558389449070751 -1.1654197859781574 0.25720930100947165 -1.1128424893174065 Q 0.2585796571118681 -1.0602651926566553 0.22630572358919682 -1.0145662515860552 Q 0.288002222290637 -1.0300110580912591 0.3414273630535776 -1.0092504142076997 Q 0.3948525038165183 -0.9884897703241403 0.4324044427126394 -0.924725737475347 M 0.24149422568688378 -0.858715972779668 Q 0.23235997027971916 -0.8742261429320772 0.2199083839470869 -0.8825602894271303 Q 0.20745679761445457 -0.8908944359221833 0.19391869122924246 -0.8922057999077646 Q 0.1803805848440304 -0.8935171638933459 0.1674554430503561 -0.8859052843873754 L 0.028725587798251767 -0.8042044443566255 L 0.0891131652122843 -0.7016649861268093 L 0.2218112876273406 -0.7798136157214396 Q 0.23559810554059318 -0.7879329538611415 0.24324768465899138 -0.8005616489366972 Q 0.2508972637773895 -0.813190344012253 0.25076287243571893 -0.8281980733197559 Q 0.25062848109404834 -0.8432058026272589 0.24149422568688378 -0.858715972779668 M -0.10372111560563466 -1.0291019115665585 L -0.048408124528915825 -0.9351792145325253 L 0.06619479937499645 -1.002671212818797 Q 0.07739658892951418 -1.0092681750573047 0.08545313851266248 -1.0192352212001832 Q 0.09350968809581081 -1.029202267343062 0.09431359344766074 -1.0436020498478524 Q 0.09511749879951062 -1.0580018323526428 0.08395340885742056 -1.076958706983365 Q 0.07380423618279325 -1.0941922293749307 0.0623675671176237 -1.1008030236308273 Q 0.0509308980524541 -1.1074138178867237 0.039092276311359586 -1.1068247208902249 Q 0.027253654570265073 -1.106235623893726 0.016051865015747346 -1.0996386616552183 L -0.10372111560563466 -1.0291019115665585 M 1.0802569644230982 -1.0932233093005634 L 1.1232289599379637 -0.9287441081793568 L 0.6336614554242542 -0.8008392274115804 L 0.4541901800386391 -1.487781773270738 L 0.9350499621400493 -1.6134116660406685 L 0.978021957654915 -1.4489324649194617 L 0.6858294944866535 -1.372593978769524 L 0.7111071389071627 -1.2758415075217555 L 0.9607285147264059 -1.341057830126669 L 1.0006671929108104 -1.1881889255551945 L 0.7510458170915673 -1.122972602950281 L 0.7793567788425375 -1.01460983515278 L 1.0802569644230982 -1.0932233093005634 M 1.2404704040908787 -0.9299390421182576 L 1.2006118861739872 -1.6388193553936856 L 1.3953043665806188 -1.6497664131314234 L 1.4351628844975104 -0.9408860998559955 L 1.2404704040908787 -0.9299390421182576 M 2.2096649689229904 -1.4018096895798724 L 2.007919720332492 -1.432056254197331 L 1.9278552845803965 -0.898024713810718 L 1.7350105616630085 -0.9269368711656415 L 1.8150749974151044 -1.4609684115522543 L 1.612340801527594 -1.4913632436433277 L 1.6375462720421425 -1.6594842841354094 L 2.234870439437539 -1.5699307300719543 L 2.2096649689229904 -1.4018096895798724 M 2.2176290854744627 -0.8235786276798185 L 2.4636195864249464 -1.4896031568393158 L 2.6465418162645267 -1.422042385451507 L 2.400551315314043 -0.7560178562920096 L 2.2176290854744627 -0.8235786276798185 M 3.3428767391757446 -0.06095394542402116 L 3.6144956604763756 -0.3180515175469052 L 3.341687138057421 -0.22368250729678912 L 3.270194765060683 -0.2992129025247721 L 3.379395741583257 -0.5664303172389262 L 3.107776820282626 -0.30933274511604214 L 2.9737286209137426 -0.45095223616851027 L 3.4893688191047803 -0.9390251672039318 L 3.635790698415407 -0.7843331077466205 L 3.4983982086303547 -0.44361577071977604 L 3.846830684088469 -0.561373191064017 L 3.992565136735666 -0.40740738540697463 L 3.476924938544628 0.08066554562844697 L 3.3428767391757446 -0.06095394542402116 M 4.262383335435397 0.0652779116751496 L 4.353806937510254 0.2631812339910169 L 3.8040380165224197 0.7661028317732878 L 3.721001900876448 0.5863557775597936 L 3.829154868365836 0.4890267704589334 L 3.749893121612863 0.3174500368915072 L 3.606093336800709 0.33761490455728155 L 3.5226378468332933 0.15696003693866875 L 4.262383335435397 0.0652779116751496 M 3.9341700070664882 0.4063658931124958 L 4.134702776095161 0.24433006822894493 L 3.8800707196001736 0.289257963852189 L 3.9341700070664882 0.4063658931124958 M 3.997684852738847 0.7998999400300333 Q 3.994832654005056 0.8065230029455552 3.9878175896729617 0.8403429507931875 Q 3.9808025253408674 0.8741628986408201 3.9885582858822457 0.916457675841141 Q 3.994149648133007 0.9469492594041632 4.007904406525788 0.9637438008255963 Q 4.021659164918568 0.9805383422470294 4.045011835233688 0.9859144736770927 Q 4.068364505548808 0.9912906051071559 4.10391356956058 0.9883301916416254 Q 4.139462633572354 0.9853697781760948 4.189626206530874 0.9761710854409714 L 4.544705615119615 0.9110587701982351 L 4.579877087342146 1.1028606668043421 L 4.224797678753404 1.1679729820470783 Q 4.145126121701637 1.182582670508745 4.078495074716421 1.1851426661442783 Q 4.011864027731205 1.1877026617798117 3.9594206239796845 1.1678358703188085 Q 3.9069772202281636 1.1479690788578054 3.8714341753442536 1.0955196559784224 Q 3.835891130460343 1.0430702330990393 3.818395577611187 0.9476610845308734 Q 3.810098717497154 0.9024155089212277 3.8140643837443897 0.863054697303382 Q 3.8180300499916258 0.8236938856855364 3.8338975095516945 0.788250639119941 L 3.997684852738847 0.7998999400300333 M 3.901773389256429 1.3704740931636374 L 4.609491482336647 1.4273520390381131 L 4.5876215115989964 1.69947462975769 Q 4.578168557214225 1.817095383255529 4.5244524922588285 1.8925346592707961 Q 4.470736427303432 1.9679739352860635 4.3872507043444555 2.0018949326478293 Q 4.303764981385478 2.0358159300095946 4.206079948819476 2.0279651712832587 Q 4.098427055787556 2.0193133147277043 4.022249057400227 1.9685475530206231 Q 3.9460710590128985 1.9177817913135415 3.9086613104880614 1.8340156841143382 Q 3.8712515619632244 1.7502495769151347 3.8799034185187784 1.6425966838832142 L 3.901773389256429 1.3704740931636374 M 4.221941685837992 1.8306015340580708 Q 4.276764918400544 1.8350075721187697 4.31965362520962 1.819393193224779 Q 4.3625423320186965 1.8037788143307882 4.3883523632754935 1.7697370416606828 Q 4.4141623945322905 1.7356952689905771 4.418167883678381 1.6858559666609845 L 4.424416446746281 1.6081066550268197 L 4.055605609507294 1.578466035345755 L 4.049357046439394 1.6562153469799197 Q 4.045271447510382 1.7070514353561044 4.066350415334863 1.7443599748002383 Q 4.087429383159344 1.7816685142443722 4.128270704263984 1.804012114903794 Q 4.169112025368624 1.8263557155632157 4.221941685837992 1.8306015340580708" fill="#262626" fill-rule="nonzero"></path></g><g clip-path="url(#SvgjsClipPath1003)"><g clip-path="url(#SvgjsClipPath1001327e931b-232f-49fd-91fd-7e0fd0e7f4c6)"><path d=" M 1.1168918723574912 1.4732900454949023 C 1.1207033085384883 1.3157339030969106 1.0867316374553047 1.1595555611965653 1.0178183812664376 1.0178183812664345 C 1.1595555611965596 1.0867316374553009 1.315733903096909 1.120703308538484 1.4732900454949058 1.1168918723574883 C 1.6308450125986078 1.1206909765358686 1.7870204763870923 1.0867199314951224 1.928761709723374 1.0178183812664328 C 1.8598289017258398 1.1595509435257565 1.825835550722465 1.315728968833012 1.8296247913012769 1.4732900454949025 C 1.825843251796763 1.6308300311102035 1.859836468788167 1.7869856920176033 1.9287617097233822 1.9286982823923289 C 1.7870204763870923 1.8597967321636384 1.6308450125986078 1.8258256871228922 1.4732900454949058 1.8296247913012722 C 1.315733903096909 1.8258133551202762 1.1595555611965596 1.8597850262034594 1.0178183812664376 1.9286982823923275 C 1.0867240699423035 1.7869810745932546 1.1206956070822878 1.6308250972148455 1.1168918723574996 1.4732900454949023 Z" fill="#262626" transform="matrix(1,0,0,1,0,0)" fill-rule="evenodd"></path></g><g clip-path="url(#SvgjsClipPath1001327e931b-232f-49fd-91fd-7e0fd0e7f4c6)"><path d=" M 1.4732900454949058 0 C 1.6160698949766212 0.1451438640185729 1.7939440551364476 0.2509157359426321 1.9896519475258039 0.3070517095850192 C 2.0573419235989463 0.5434110250408668 2.0356673606258604 0.7964163924121004 1.928761709723374 1.0178183812664325 L 1.4732900454948974 0.5623467170379629 L 1.0178183812664294 1.0178183812664325 C 0.9108777509209283 0.7964259861751394 0.8892020658518892 0.543407520671252 0.9569281434639827 0.3070517095850189 C 1.152630287453808 0.2509024344684133 1.3305012542856298 0.14513246143895234 1.4732900454949058 -2.2533914661057134e-16 Z" fill="#e8a941" transform="matrix(1,0,0,1,0,0)" fill-rule="evenodd"></path></g><g clip-path="url(#SvgjsClipPath1001327e931b-232f-49fd-91fd-7e0fd0e7f4c6)"><path d=" M 1.9895885201947687 0.307051709585019 L 2.639464954073741 0.9569281434639911 C 2.5717749780006156 0.7205688280081435 2.5934495409737015 0.46756346063690996 2.700355191876188 0.24616147178257786 C 2.478953203021857 0.3530671226850594 2.2259478356506253 0.3747416856581439 1.9895885201947772 0.3070517095850191 Z" fill="#262626" transform="matrix(1,0,0,1,0,0)" fill-rule="evenodd"></path></g><g clip-path="url(#SvgjsClipPath1001327e931b-232f-49fd-91fd-7e0fd0e7f4c6)"><path d=" M 2.94651666365876 1.4732900454949023 C 2.8014069888684516 1.3304833872931745 2.695640808835001 1.152618799056785 2.6394649540737496 0.9569281434639917 C 2.403129919482372 0.8892062316994703 2.150132716386417 0.910882029555081 1.928761709723374 1.0178183812664323 L 2.384233373951842 1.4732900454949023 L 1.928761709723374 1.9287617097233718 C 2.1501407130563295 2.035668907481011 2.403126998542364 2.0573437699590644 2.639464954073741 1.9896519475258132 C 2.6956248647748273 1.793954400238543 2.8013933198394962 1.6160859861337133 2.94651666365876 1.4732900454949023 Z" fill="#e8a941" transform="matrix(1,0,0,1,0,0)" fill-rule="evenodd"></path></g><g clip-path="url(#SvgjsClipPath1001327e931b-232f-49fd-91fd-7e0fd0e7f4c6)"><path d=" M 0.30705170958501854 0.9569281434639911 L 0.956928143463991 0.30705170958501893 C 0.7205746717480023 0.3748018719265663 0.4675474650557756 0.3531254380139709 0.24616147178258027 0.2461614717825776 C 0.35309627018948087 0.4675554665810529 0.37477176814513363 0.7205717479258812 0.30705170958501854 0.956928143463991 Z" fill="#262626" transform="matrix(1,0,0,1,0,0)" fill-rule="evenodd"></path></g><g clip-path="url(#SvgjsClipPath1001327e931b-232f-49fd-91fd-7e0fd0e7f4c6)"><path d=" M 0 1.4732900454949023 C 0.14516668771390306 1.6160519950333687 0.2509423622294393 1.7939325499251109 0.30705170958501854 1.9896519475258132 C 0.5434110250408751 2.057341923598938 0.7964163924121067 2.0356673606258533 1.0178183812664376 1.9287617097233716 L 0.5623467170379612 1.4732900454949018 L 1.0178183812664376 1.0178183812664323 C 0.7964259861751521 0.9108777509209389 0.5434075206712622 0.8892020658518927 0.3070517095850269 0.956928143463991 C 0.25092638272122963 1.1526406365913355 0.14515299052947164 1.3305173533509138 8.374504044635272e-15 1.4732900454949027 Z" fill="#e8a941" transform="matrix(1,0,0,1,0,0)" fill-rule="evenodd"></path></g><g clip-path="url(#SvgjsClipPath1001327e931b-232f-49fd-91fd-7e0fd0e7f4c6)"><path d=" M 0.30705170958501854 1.9895885201947687 L 0.956928143463991 2.6394649540737407 C 0.7205688280081428 2.571774978000616 0.46756346063691123 2.5934495409737006 0.2461614717825719 2.700355191876182 C 0.35310210212807297 2.4789627967848893 0.37477778719712035 2.2259443312810014 0.30705170958501854 1.9895885201947685 Z" fill="#262626" transform="matrix(1,0,0,1,0,0)" fill-rule="evenodd"></path></g><g clip-path="url(#SvgjsClipPath1001327e931b-232f-49fd-91fd-7e0fd0e7f4c6)"><path d=" M 1.4732900454949058 2.94651666365876 C 1.6160859861337105 2.8013933198394962 1.7939544002385404 2.695624864774827 1.9896519475258123 2.639464954073741 C 2.057262791910028 2.4032250472462757 2.035589235821401 2.1503668928790067 1.928761709723374 1.929078846378593 L 1.4732900454948974 2.3844870832760177 L 1.0178183812664294 1.9290788463785924 C 0.9109617299042505 2.1503589055355685 0.8892872393850203 2.4032279615932386 0.9569281434639827 2.639464954073741 C 1.1526187990567687 2.695640808834991 1.3304833872931676 2.801406988868447 1.4732900454948974 2.9465166636587594 Z" fill="#e8a941" transform="matrix(1,0,0,1,0,0)" fill-rule="evenodd"></path></g><g clip-path="url(#SvgjsClipPath1001327e931b-232f-49fd-91fd-7e0fd0e7f4c6)"><path d=" M 1.9895885201947687 2.6395283814047854 L 2.639464954073741 1.989588520194769 C 2.5717768221572443 2.2259691953205865 2.5934510857784745 2.478993645740519 2.700355191876188 2.700418619207227 C 2.478970799805268 2.593448816970593 2.225941406677276 2.571772195749562 1.9895885201947772 2.639528381404785 Z" fill="#262626" transform="matrix(1,0,0,1,0,0)" fill-rule="evenodd"></path></g></g><g transform="matrix(-0.569952897561574,-0.8216773664651875,0.8216773664651875,-0.569952897561574,-3.804450763404475,3.371020284773944)"><g clip-path="url(#SvgjsClipPath1004)"><path d=" M -1.0197883780603838 2.799568854900849 C -1.0021134066318125 2.799568854900849 -0.9927235780603839 2.7885219977579916 -0.9927235780603839 2.773056397757992 C -0.9927235780603839 2.764771254900849 -0.9946567780603839 2.7575907977579917 -1.0021134066318125 2.7426775406151345 C -1.0126079209175267 2.7219646834722777 -1.0145411209175268 2.7153365691865634 -1.0164743209175267 2.696280740615135 C -1.0029419209175268 2.6976615977579916 -0.9913427209175267 2.7006994834722775 -0.9816767209175268 2.7051182263294202 C -0.9568212923460981 2.716441254900849 -0.949640835203241 2.7194791406151344 -0.9391463209175268 2.7194791406151344 C -0.9247854066318124 2.7194791406151344 -0.9131862066318125 2.7098131406151347 -0.9131862066318125 2.6924143406151346 C -0.9131862066318125 2.6752917120437063 -0.924509235203241 2.665349540615135 -0.9391463209175268 2.665349540615135 C -0.9474314637746696 2.665349540615135 -0.9576498066318124 2.6683874263294203 -0.9700775209175267 2.6741870263294203 L -0.9816767209175268 2.679710454900849 C -0.9924474066318125 2.6846815406151348 -1.0040466066318126 2.68771942632942 -1.0164743209175267 2.6891002834722775 C -1.0145411209175268 2.6725299977579917 -1.0101223780603839 2.6578929120437063 -1.0032180923460983 2.6446366834722776 C -0.9963138066318125 2.6316566263294203 -0.9927235780603839 2.6206097691865633 -0.9927235780603839 2.6117722834722774 C -0.9927235780603839 2.5974113691865632 -1.0010087209175267 2.585812169186563 -1.0197883780603838 2.585812169186563 C -1.0388442066318124 2.585812169186563 -1.0474055209175268 2.597135197757992 -1.0474055209175268 2.6117722834722774 C -1.0474055209175268 2.6208859406151346 -1.0451961494889552 2.6266855406151346 -1.0324922637746696 2.6543026834722774 C -1.0280735209175267 2.6639686834722776 -1.025035635203241 2.6755678834722776 -1.023654778060384 2.6891002834722775 C -1.0371871780603839 2.68771942632942 -1.0509957494889552 2.6835768549008487 -1.0656328352032411 2.67612022632942 C -1.0799939796318125 2.6689397691865633 -1.0918693510603839 2.665349540615135 -1.100983008203241 2.665349540615135 C -1.1153439224889554 2.665349540615135 -1.1269431224889552 2.6750155406151346 -1.1269431224889552 2.6924143406151346 C -1.1269431224889552 2.7098131406151347 -1.1156200939175267 2.7194791406151344 -1.100983008203241 2.7194791406151344 C -1.0910408367746696 2.7194791406151344 -1.0849650653460983 2.7172697691865633 -1.0584523780603838 2.7051182263294202 C -1.0487863780603839 2.7006994834722775 -1.0371871780603839 2.6976615977579916 -1.023654778060384 2.696280740615135 C -1.0255879780603838 2.7128510263294205 -1.0300067209175268 2.727488112043706 -1.0369110066318123 2.7407443406151346 C -1.0438152923460982 2.753724397757992 -1.0474055209175268 2.7644950834722777 -1.0474055209175268 2.773056397757992 C -1.0474055209175268 2.7882458263294203 -1.0380156923460981 2.799568854900849 -1.0197883780603838 2.799568854900849 Z" fill="#262626" transform="matrix(1,0,0,1,0,0)" fill-rule="nonzero"></path></g></g><g transform="matrix(0.569952897561574,-0.8216773664651875,-0.8216773664651875,-0.569952897561574,3.908810290417672,7.468439915607333)"><g clip-path="url(#SvgjsClipPath1005)"><path d=" M 3.966864288862001 2.799568854900849 C 3.984539260290573 2.799568854900849 3.9939290888620014 2.7885219977579916 3.9939290888620014 2.773056397757992 C 3.9939290888620014 2.764771254900849 3.991995888862001 2.7575907977579917 3.984539260290573 2.7426775406151345 C 3.9740447460048585 2.7219646834722777 3.9721115460048586 2.7153365691865634 3.9701783460048583 2.696280740615135 C 3.9837107460048586 2.6976615977579916 3.9953099460048582 2.7006994834722775 4.004975946004858 2.7051182263294202 C 4.029831374576287 2.716441254900849 4.037011831719144 2.7194791406151344 4.047506346004859 2.7194791406151344 C 4.0618672602905725 2.7194791406151344 4.073466460290573 2.7098131406151347 4.073466460290573 2.6924143406151346 C 4.073466460290573 2.6752917120437063 4.062143431719144 2.665349540615135 4.047506346004859 2.665349540615135 C 4.039221203147716 2.665349540615135 4.029002860290572 2.6683874263294203 4.016575146004858 2.6741870263294203 L 4.004975946004858 2.679710454900849 C 3.9942052602905727 2.6846815406151348 3.9826060602905726 2.68771942632942 3.9701783460048583 2.6891002834722775 C 3.9721115460048586 2.6725299977579917 3.9765302888620013 2.6578929120437063 3.983434574576287 2.6446366834722776 C 3.9903388602905725 2.6316566263294203 3.9939290888620014 2.6206097691865633 3.9939290888620014 2.6117722834722774 C 3.9939290888620014 2.5974113691865632 3.9856439460048585 2.585812169186563 3.966864288862001 2.585812169186563 C 3.9478084602905725 2.585812169186563 3.9392471460048584 2.597135197757992 3.9392471460048584 2.6117722834722774 C 3.9392471460048584 2.6208859406151346 3.94145651743343 2.6266855406151346 3.9541604031477156 2.6543026834722774 C 3.9585791460048583 2.6639686834722776 3.961617031719144 2.6755678834722776 3.9629978888620014 2.6891002834722775 C 3.949465488862001 2.68771942632942 3.93565691743343 2.6835768549008487 3.921019831719144 2.67612022632942 C 3.9066586872905726 2.6689397691865633 3.8947833158620013 2.665349540615135 3.885669658719144 2.665349540615135 C 3.87130874443343 2.665349540615135 3.85970954443343 2.6750155406151346 3.85970954443343 2.6924143406151346 C 3.85970954443343 2.7098131406151347 3.8710325730048583 2.7194791406151344 3.885669658719144 2.7194791406151344 C 3.8956118301477156 2.7194791406151344 3.901687601576287 2.7172697691865633 3.9282002888620013 2.7051182263294202 C 3.9378662888620015 2.7006994834722775 3.949465488862001 2.6976615977579916 3.9629978888620014 2.696280740615135 C 3.961064688862001 2.7128510263294205 3.9566459460048584 2.727488112043706 3.949741660290573 2.7407443406151346 C 3.942837374576287 2.753724397757992 3.9392471460048584 2.7644950834722777 3.9392471460048584 2.773056397757992 C 3.9392471460048584 2.7882458263294203 3.948636974576287 2.799568854900849 3.966864288862001 2.799568854900849 Z" fill="#262626" transform="matrix(1,0,0,1,0,0)" fill-rule="nonzero"></path></g></g></g><defs><clipPath id="SvgjsClipPath1003"><path d=" M 0 0 h 2.94651666365876 v 2.94651666365876 h -2.94651666365876 Z"></path></clipPath><clipPath id="SvgjsClipPath1001327e931b-232f-49fd-91fd-7e0fd0e7f4c6"><path d=" M 0 0 L 2.94651666365876 0 L 2.94651666365876 2.94651666365876 L 0 2.94651666365876 Z"></path></clipPath><clipPath id="SvgjsClipPath1004"><path d=" M -1.1811680016318125 2.519991312043706 h 0.3222 v 0.3222 h -0.3222 Z"></path></clipPath><clipPath id="SvgjsClipPath1005"><path d=" M 3.8054846652905727 2.519991312043706 h 0.3222 v 0.3222 h -0.3222 Z"></path></clipPath></defs></svg>